<svg id="Layer_1" data-name="Layer 1" xmlns="http://www.w3.org/2000/svg" viewBox="0 0 61.83 61.83">
    <defs>
        <style>
            .cls-1 {
                fill: #e84142;
            }
            .cls-2 {
                fill: #fff;
            }
        </style>
    </defs>
    <circle class="cls-1" cx="30.92" cy="30.92" r="30.92" />
    <path
        class="cls-2"
        d="M20.63,48.44h-4c-1.75,0-2.63,0-3.16-.34a2.1,2.1,0,0,1-1-1.66c0-.63.4-1.39,1.27-2.92l14.3-25.07c.88-1.55,1.32-2.33,1.88-2.61a2.11,2.11,0,0,1,1.94,0c.56.29,1,1.06,1.89,2.61l2.06,3.61a13.85,13.85,0,0,1,1.66,3.42,6.39,6.39,0,0,1,0,3,14.1,14.1,0,0,1-1.65,3.42h0L29.2,43.47a14.22,14.22,0,0,1-2.14,3.21,6.32,6.32,0,0,1-2.58,1.49A13.86,13.86,0,0,1,20.63,48.44Z"
        transform="translate(-0.08 -3.77)"
    />
    <path
        class="cls-2"
        d="M46.48,48.44H39.65c-1.77,0-2.66,0-3.18-.34a2.17,2.17,0,0,1-1-1.68c0-.63.42-1.39,1.31-2.92l3.41-5.86c.88-1.51,1.32-2.27,1.88-2.55a2.1,2.1,0,0,1,1.92,0c.56.28,1,1,1.88,2.55l3.42,5.85c.9,1.53,1.35,2.3,1.32,2.93a2.14,2.14,0,0,1-1,1.67C49.15,48.44,48.26,48.44,46.48,48.44Z"
        transform="translate(-0.08 -3.77)"
    />
</svg>
