<svg width="100" height="100" viewBox="0 0 100 100" fill="none" xmlns="http://www.w3.org/2000/svg">
<path d="M100 0H0V100H100V0Z" fill="white"/>
<path d="M89 26H13V77H89V26Z" fill="#FCB1B1"/>
<path d="M15 26H14V27V69V70H15H87H88V69V27V26H87H15Z" fill="white" stroke="#D31313" stroke-width="2" stroke-miterlimit="10"/>
<path d="M50.4689 54.0706C53.9704 54.0706 56.8089 51.2321 56.8089 47.7306C56.8089 44.2291 53.9704 41.3906 50.4689 41.3906C46.9674 41.3906 44.1289 44.2291 44.1289 47.7306C44.1289 51.2321 46.9674 54.0706 50.4689 54.0706Z" stroke="#D31313" stroke-width="2" stroke-miterlimit="10"/>
<path d="M75.5494 34.6309H25.3794C24.4094 34.6309 25.2194 36.7209 24.5794 37.3509C23.9394 37.9909 21.8594 37.1809 21.8594 38.1509V58.1409C21.8594 59.1109 23.9494 58.3009 24.5794 58.9409C25.2194 59.5809 24.4094 61.6609 25.3794 61.6609H75.5494C76.4494 61.6609 75.5894 59.6309 76.2094 59.0609C76.9294 58.4109 79.0694 59.1709 79.0694 58.1309V38.1609C79.0694 37.1909 76.9794 38.0009 76.3494 37.3609C75.7094 36.7209 76.5194 34.6309 75.5494 34.6309Z" stroke="#D31313" stroke-width="2" stroke-miterlimit="10"/>
<path d="M81.4987 52.3901C87.0382 52.3901 91.5287 47.8995 91.5287 42.3601C91.5287 36.8207 87.0382 32.3301 81.4987 32.3301C75.9593 32.3301 71.4688 36.8207 71.4688 42.3601C71.4688 47.8995 75.9593 52.3901 81.4987 52.3901Z" fill="#FCB1B1" stroke="#D31313" stroke-width="2" stroke-miterlimit="10"/>
<path d="M77.1289 41.3905L80.4689 44.5305L86.4189 39.7305" stroke="#D31313" stroke-width="2" stroke-miterlimit="10"/>
</svg>
