<svg width="100" height="100" viewBox="0 0 100 100" fill="none" xmlns="http://www.w3.org/2000/svg">
<path d="M9.83 30.76C10.34 29.95 10.91 29.19 11.54 28.48C12.35 27.56 13.25 26.72 14.23 25.97" stroke="#FCB1B1" stroke-width="2" stroke-miterlimit="10"/>
<path d="M7.27 43.6699C7.09 42.6499 7 41.5999 7 40.5299C7 39.1999 7.14 37.8999 7.41 36.6499" stroke="#FCB1B1" stroke-width="2" stroke-miterlimit="10"/>
<path d="M15.07 55.7C14 54.98 13.01 54.14 12.11 53.22C11.3 52.38 10.58 51.47 9.94 50.49" stroke="#FCB1B1" stroke-width="2" stroke-miterlimit="10"/>
<path d="M29.63 58.29C28.24 58.63 26.78 58.81 25.28 58.81C24.16 58.81 23.06 58.71 21.99 58.51" stroke="#FCB1B1" stroke-width="2" stroke-miterlimit="10"/>
<path d="M40.99 49.8999C40.39 50.9099 39.69 51.8499 38.91 52.7199C38.22 53.4899 37.46 54.2099 36.64 54.8599" stroke="#FCB1B1" stroke-width="2" stroke-miterlimit="10"/>
<path d="M43.17 36.7C43.43 37.93 43.57 39.2099 43.57 40.5299C43.57 41.5999 43.48 42.65 43.3 43.68" stroke="#FCB1B1" stroke-width="2" stroke-miterlimit="10"/>
<path d="M35.45 25.3301C36.44 26.0001 37.37 26.7601 38.21 27.6001C39.03 28.4201 39.77 29.3201 40.42 30.2801" stroke="#FCB1B1" stroke-width="2" stroke-miterlimit="10"/>
<path d="M21.12 22.72C22.46 22.41 23.85 22.24 25.28 22.24C26.54 22.24 27.77 22.37 28.96 22.61" stroke="#FCB1B1" stroke-width="2" stroke-miterlimit="10"/>
<path d="M54.65 43.26C54.65 43.26 54.65 63.25 71.83 62.14C89.01 61.03 88.66 43.3 88.66 43.3L54.65 43.26Z" fill="#FCB1B1"/>
<path d="M89 43.26H53.54" stroke="#D31313" stroke-width="2" stroke-miterlimit="10"/>
<path d="M71.51 61.9002V62.7002V63.6702C71.51 76.2302 61.23 86.5102 48.67 86.5102C36.11 86.5102 25.83 76.2302 25.83 63.6702V39.9302" stroke="#D31313" stroke-width="2" stroke-miterlimit="10"/>
<path d="M89 23.73V25.02V45C89 54.43 81.45 62.14 72.22 62.14H71.43C62.2 62.14 54.65 54.43 54.65 45V24.93V23.97" stroke="#D31313" stroke-width="2" stroke-miterlimit="10"/>
<path d="M54.65 26.1201V24.9301V23.4301V21.6901C54.65 19.5601 56.4 17.8101 58.53 17.8101" stroke="#D31313" stroke-width="2" stroke-miterlimit="10"/>
<path d="M85.12 17.8101C87.25 17.8101 89 19.5601 89 21.6901V26.1201" stroke="#D31313" stroke-width="2" stroke-miterlimit="10"/>
<path d="M79.09 20.14H83.83C85.24 20.14 86.38 19 86.38 17.59V17.04C86.38 15.63 85.24 14.49 83.83 14.49H79.09C77.68 14.49 76.54 15.63 76.54 17.04V17.59C76.54 19 77.68 20.14 79.09 20.14Z" fill="#FCB1B1" stroke="#D31313" stroke-width="2" stroke-miterlimit="10"/>
<path d="M59.76 20.14H64.5C65.91 20.14 67.05 19 67.05 17.59V17.04C67.05 15.63 65.91 14.49 64.5 14.49H59.76C58.35 14.49 57.21 15.63 57.21 17.04V17.59C57.21 19 58.35 20.14 59.76 20.14Z" fill="#FCB1B1" stroke="#D31313" stroke-width="2" stroke-miterlimit="10"/>
<path d="M25.78 48.77C30.4247 48.77 34.19 45.0629 34.19 40.49C34.19 35.917 30.4247 32.21 25.78 32.21C21.1353 32.21 17.37 35.917 17.37 40.49C17.37 45.0629 21.1353 48.77 25.78 48.77Z" stroke="#D31313" stroke-width="2" stroke-miterlimit="10"/>
<path d="M25.78 43.6701C27.5473 43.6701 28.98 42.2598 28.98 40.5201C28.98 38.7804 27.5473 37.3701 25.78 37.3701C24.0127 37.3701 22.58 38.7804 22.58 40.5201C22.58 42.2598 24.0127 43.6701 25.78 43.6701Z" fill="#FCB1B1"/>
</svg>
