<svg width="100" height="100" viewBox="0 0 100 100" fill="none" xmlns="http://www.w3.org/2000/svg">
<path d="M100 0H0V100H100V0Z" fill="white"/>
<path d="M20.0314 61.1L14.2914 69.55C14.2714 69.57 14.2614 69.59 14.2514 69.62C14.0014 70.14 4.85144 78.13 16.7314 76.22C22.3214 75.32 85.8314 76.37 85.8314 76.37C85.8314 76.37 90.8114 76.37 90.8114 75.49C90.8114 73.06 68.8814 43.04 68.8814 43.04C68.8814 43.04 68.7714 37.86 66.2514 42.16C63.7314 46.46 52.8114 58.49 52.8114 58.49C52.8114 58.49 51.1114 60.78 48.1614 58.49C45.2114 56.2 43.6114 53.94 43.6114 53.94C43.6114 53.94 40.4814 51.81 38.0214 54.88C35.5614 57.95 33.3814 61.65 28.3214 56.21C25.0414 52.68 23.7614 54.88 23.7614 54.88L20.0314 61.1Z" fill="#FCB1B1"/>
<path d="M82.4819 46.5809C85.5526 46.5809 88.0419 44.0916 88.0419 41.0209C88.0419 37.9502 85.5526 35.4609 82.4819 35.4609C79.4112 35.4609 76.9219 37.9502 76.9219 41.0209C76.9219 44.0916 79.4112 46.5809 82.4819 46.5809Z" fill="#FCB1B1"/>
<path d="M72.6119 76.38H9.67188L41.1419 30L72.6119 76.38Z" stroke="#D31313" stroke-width="2" stroke-miterlimit="10"/>
<path d="M57.2695 53.7791L68.0095 41.2891L91.8995 76.3791H72.6095H71.3395" stroke="#D31313" stroke-width="2" stroke-miterlimit="10"/>
<path d="M25.0508 53.7902L29.7508 58.4902C31.0408 59.7802 33.1208 59.7802 34.4008 58.4902L38.9508 53.9402C40.2408 52.6502 42.3208 52.6502 43.6008 53.9402L48.1508 58.4902C49.4408 59.7802 51.5208 59.7802 52.8008 58.4902L57.0708 54.2202" stroke="#D31313" stroke-width="2" stroke-miterlimit="10"/>
</svg>
