<svg width="62" height="69" viewBox="0 0 62 69" fill="none" xmlns="http://www.w3.org/2000/svg">
    <path
        fill-rule="evenodd"
        clip-rule="evenodd"
        d="M27.4998 55.0084C42.6875 55.0084 54.9997 42.6943 54.9997 27.5042C54.9997 25.9144 54.8647 24.3562 54.6059 22.8403C59.1327 27.7428 61.8986 34.2963 61.8986 41.4958C61.8986 56.6859 49.5864 69 34.3987 69C20.8004 69 9.50742 59.1285 7.29264 46.1597C12.3169 51.6009 19.5105 55.0084 27.4998 55.0084ZM7.29264 46.1597C2.76578 41.2572 0 34.7037 0 27.5042C0 12.314 12.3121 0 27.4998 0C41.098 0 52.391 9.87147 54.6059 22.8403C49.5816 17.3992 42.3881 13.9917 34.3987 13.9917C19.211 13.9917 6.8989 26.3057 6.8989 41.4958C6.8989 43.0856 7.03375 44.6438 7.29264 46.1597Z"
        fill="#e84142"
    />
</svg>
