<svg width="100" height="100" viewBox="0 0 100 100" fill="none" xmlns="http://www.w3.org/2000/svg">
<path d="M100 0H0V100H100V0Z" fill="white"/>
<path d="M50.5898 82.6504C66.6061 82.6504 79.5898 79.5164 79.5898 75.6504C79.5898 71.7844 66.6061 68.6504 50.5898 68.6504C34.5736 68.6504 21.5898 71.7844 21.5898 75.6504C21.5898 79.5164 34.5736 82.6504 50.5898 82.6504Z" fill="#FCB1B1"/>
<path d="M27.5781 47.1504C30.0634 47.1504 32.0781 45.1357 32.0781 42.6504C32.0781 40.1651 30.0634 38.1504 27.5781 38.1504C25.0928 38.1504 23.0781 40.1651 23.0781 42.6504C23.0781 45.1357 25.0928 47.1504 27.5781 47.1504Z" fill="#FCB1B1"/>
<path d="M90.7607 32.2606C84.7607 37.3406 80.8507 40.2406 74.2707 44.5306C70.8807 39.9806 71.8307 33.5406 76.3807 30.1506C80.9307 26.7606 87.3707 27.7006 90.7607 32.2606Z" fill="#FCB1B1"/>
<path d="M27.769 38.2082C38.3033 35.5565 46.4846 31.9828 46.0424 30.2262C45.6002 28.4696 36.702 29.1952 26.1677 31.847C15.6335 34.4988 7.45221 38.0724 7.8944 39.8291C8.33658 41.5857 17.2348 40.86 27.769 38.2082Z" stroke="#D31313" stroke-width="2" stroke-miterlimit="10"/>
<path d="M36.031 71.0509C41.2955 69.7257 45.3238 67.7006 45.0286 66.5278C44.7333 65.3549 40.2263 65.4784 34.9618 66.8036C29.6974 68.1288 25.669 70.1539 25.9643 71.3268C26.2595 72.4996 30.7665 72.3761 36.031 71.0509Z" stroke="#D31313" stroke-width="2" stroke-miterlimit="10"/>
<path d="M7.89844 39.8305L31.9784 54.9305L46.0384 30.2305" stroke="#D31313" stroke-width="2" stroke-miterlimit="10"/>
<path d="M31.9805 54.9297L35.0705 67.2297" stroke="#D31313" stroke-width="2" stroke-miterlimit="10"/>
<path d="M92.4156 40.0743C92.8767 38.3224 84.7336 34.661 74.2275 31.8962C63.7215 29.1315 54.8309 28.3104 54.3699 30.0623C53.9089 31.8142 62.052 35.4756 72.558 38.2404C83.064 41.0051 91.9546 41.8262 92.4156 40.0743Z" stroke="#D31313" stroke-width="2" stroke-miterlimit="10"/>
<path d="M74.0041 71.3797C74.312 70.21 70.3052 68.1416 65.0549 66.76C59.8045 65.3783 55.2988 65.2065 54.9909 66.3762C54.6831 67.5459 58.6898 69.6142 63.9402 70.9959C69.1905 72.3775 73.6963 72.5494 74.0041 71.3797Z" stroke="#D31313" stroke-width="2" stroke-miterlimit="10"/>
<path d="M54.3789 30.0703L68.1789 54.9203L92.4189 40.0803" stroke="#D31313" stroke-width="2" stroke-miterlimit="10"/>
<path d="M68.1792 54.9199L64.9492 67.1799" stroke="#D31313" stroke-width="2" stroke-miterlimit="10"/>
<path d="M52.0898 12.1504H49.0898V22.1504H52.0898V12.1504Z" fill="#FCB1B1"/>
<path d="M39.1174 15.5564L36.9961 17.6777L44.0671 24.7487L46.1884 22.6274L39.1174 15.5564Z" fill="#FCB1B1"/>
<path d="M64.1877 17.6721L62.0664 15.5508L54.9954 22.6218L57.1167 24.7431L64.1877 17.6721Z" fill="#FCB1B1"/>
</svg>
